# xmcd
#
# Track frame offsets:
#	187
#	2125
#	18182
#	30890
#	46290
#	62187
#	80475
#	95432
#	117745
#	135042
#	148362
#	163312
#	181625
#	201147
#	218307
#	232620
#
# Disc length: 3184 seconds
#
# Revision: 1
# Processed by: cddbd v1.5.1PL0 Copyright (c) Steve Scherf et al.
# Submitted via: CDex 1.50Beta5
#
DISCID=c50c6e10
DTITLE=さとう宗幸 - 遥かな友に/さとう宗幸
DYEAR=1991
DGENRE=Pop
TTITLE0=プロローグ
TTITLE1=砂山
TTITLE2=浜辺の歌
TTITLE3=椰子の実
TTITLE4=忘れな草をあなたに
TTITLE5=青葉城恋唄
TTITLE6=岩尾別旅情
TTITLE7=追憶
TTITLE8=地球岬
TTITLE9=白い想い出
TTITLE10=花の街
TTITLE11=白い花の咲く頃
TTITLE12=あざみの歌
TTITLE13=萌ゆる想い
TTITLE14=遥かな友に
TTITLE15=エピローグ
EXTD=
EXTT0=
EXTT1=
EXTT2=
EXTT3=
EXTT4=
EXTT5=
EXTT6=
EXTT7=
EXTT8=
EXTT9=
EXTT10=
EXTT11=
EXTT12=
EXTT13=
EXTT14=
EXTT15=
PLAYORDER=
